<?xml version="1.0" encoding="utf-8"?>
<!-- Generator: Adobe Illustrator 22.1.0, SVG Export Plug-In . SVG Version: 6.00 Build 0)  -->
<svg version="1.1" id="Layer_1" xmlns="http://www.w3.org/2000/svg" xmlns:xlink="http://www.w3.org/1999/xlink" x="0px" y="0px"
	 viewBox="0 0 363.4 362.7" style="enable-background:new 0 0 363.4 362.7;" xml:space="preserve">
<style type="text/css">
	.st0{fill:#4062BB;}
	.st1{fill:none;stroke:#FFFFFF;stroke-width:2;stroke-miterlimit:10;}
	.st2{fill:#FFFFFF;}
	.st3{fill:#F2F2F2;}
</style>
<g>
	<polygon class="st0" points="181.7,16.8 204.5,0 222.5,21.9 248.7,11.4 260.7,37 288.7,33.3 293.9,61.2 322,64.6 320.1,92.8 
		346.5,103.1 337.6,130 360.6,146.5 345.3,170.3 363.4,192.1 342.7,211.3 354.9,236.9 330,250.4 335.4,278.2 308,285.1 306.4,313.4 
		278,313.2 269.4,340.2 242,333 227,357 202.3,343.2 181.7,362.7 161.2,343.2 136.4,357 121.4,333 94,340.2 85.4,313.2 57.1,313.4 
		55.5,285.1 28,278.2 33.4,250.4 8.6,236.9 20.8,211.3 0,192.1 18.2,170.3 2.9,146.5 25.9,130 17,103.1 43.4,92.8 41.4,64.6 
		69.5,61.2 74.7,33.3 102.8,37 114.7,11.4 141,21.9 158.9,0 	"/>
</g>
<circle class="st1" cx="181.7" cy="181.4" r="143"/>
<circle class="st1" cx="181.7" cy="181.4" r="103"/>
<circle class="st2" cx="75.5" cy="242.7" r="12.1"/>
<circle class="st2" cx="288.5" cy="242.7" r="12.1"/>
<g>
	<g>
		<path class="st2" d="M58.5,155.7c2.7-0.7,4.1-1,6.8-1.5c0.6-0.1,1.1-0.3,1.3-0.4c0.2-0.1,0.4-0.4,0.6-0.8c0.3-0.8,0.8-1,1.4-0.8
			c0.7,0.3,1.1,0.9,1.1,2c0,1.1-0.3,2.7-0.8,5c-0.6,2.5-1.2,4.5-1.6,5.7c-0.2,0.6-0.5,1-0.8,1.3c-0.3,0.3-0.7,0.4-1.1,0.3
			c-0.3-0.1-0.5-0.2-0.6-0.4c-0.1-0.2-0.2-0.6-0.2-1.1c0-0.6-0.2-0.9-0.6-1c-0.7-0.2-1.2,0.2-1.5,1.2c-0.3,1-0.7,2.5-1,4.5
			c-0.3,1.7-0.4,2.7-0.3,3.1c0.1,0.2,0.2,0.4,0.5,0.6s0.5,0.3,0.7,0.3c0.2,0,0.4,0,0.5-0.1c0.1-0.1,0.2-0.4,0.5-1
			c0.3-0.7,0.7-1,1.3-0.9c1.2,0.2,1.5,2,1,5.5c-0.3,2-0.5,3.5-0.9,4.4c-0.3,0.9-0.8,1.3-1.5,1.2c-0.3,0-0.5-0.1-0.7-0.4
			c-0.2-0.2-0.3-0.6-0.4-1.1c-0.1-0.9-0.4-1.5-0.8-2c-0.4-0.5-1.2-1.2-2.4-2.2c-1.7-1.3-2.6-2-4.3-3.5c-1.6-1.3-2.7-2.2-3.5-2.7
			c-0.8-0.5-1.6-0.8-2.4-0.9c-0.9-0.1-1.4-0.3-1.8-0.5c-0.3-0.2-0.6-0.5-0.8-1c-0.5-1.1-0.7-2.4-0.4-3.9c0.3-1.4,0.9-2.7,2-3.8
			C49.1,159.2,52.7,157.2,58.5,155.7z M57.6,169.4c0.3-1.5,0.4-2.3,0.7-3.8c0.1-0.7,0.1-1.1-0.2-1.1c-0.3-0.1-1.2,0.2-2.7,0.9
			c-0.7,0.3-1.1,0.6-1.4,0.8c-0.2,0.2-0.4,0.4-0.4,0.7c-0.1,0.5,0.2,1,0.8,1.4c0.1,0.1,0.4,0.3,1,0.8c0.9,0.7,1.5,1.1,1.7,1.2
			C57.4,170.3,57.5,170,57.6,169.4z"/>
		<path class="st2" d="M54.9,132.5c0.7-1.7,1.7-3.3,2.9-4.6c0.6-0.6,1-1.1,1.1-1.3c0.1-0.2,0.2-0.6,0.3-1c0-0.2,0.1-0.3,0.2-0.5
			c0.3-0.6,0.7-1,1.4-1.2c1.5-0.5,3-0.4,4.5,0.4c1.1,0.6,1.6,1.5,1.7,2.6c0,0.6-0.1,1.2-0.3,1.8c-0.2,0.5-0.5,0.9-0.9,1.2
			c-0.4,0.2-0.9,0.4-1.5,0.4c-0.9,0.1-1.6,0.3-2,0.4c-0.4,0.2-0.9,0.4-1.3,0.7c-1.1,0.8-1.9,1.9-2.3,3.1c-0.5,1.2-0.5,2.3-0.1,3.3
			c0.4,1,1.2,1.6,2.4,2.2c1.6,0.7,3.3,0.9,5,0.5c2.3-0.5,3.8-1.8,4.8-4.1c0.4-0.8,0.6-1.7,0.7-2.7c0.1-0.9,0.1-1.8-0.1-2.4
			c-0.2-0.6-0.2-1,0-1.2c0.2-0.4,0.5-0.6,0.9-0.7c0.4-0.1,0.8,0,1.2,0.2c0.5,0.3,1,0.8,1.5,1.5c0.5,0.7,0.8,1.4,0.9,2.1
			c0.1,0.3,0,0.8-0.2,1.5c-0.1,0.4-0.2,1-0.2,1.8c0,1.8-0.3,3.5-0.9,5.1c-0.7,1.7-1.7,3.2-3,4.7c-1.5,1.7-3.3,2.8-5.4,3.5
			c-2.1,0.6-4,0.6-5.8,0c-2.1-0.8-3.8-2.2-5.1-4.5c-1.1-2-1.6-4.3-1.5-6.9C53.7,136.4,54.1,134.4,54.9,132.5z"/>
		<path class="st2" d="M81.3,113.8c0.9,1.7,1.4,2.5,2.3,4.2c0.4,0.7,0.6,1.2,0.7,1.5c0.1,0.3,0.1,0.6,0,0.8
			c-0.1,0.2-0.3,0.3-0.6,0.3c-0.2,0-0.7,0-1.5-0.2c-0.9-0.1-1.6-0.2-2.3-0.4c-2-0.4-2.9-0.5-4.9-0.9c-0.7-0.1-1.1,0-1.3,0.3
			c-0.2,0.3,0,0.6,0.4,1c1,0.8,1.9,1.4,2.8,2c0.9,0.6,1.5,1,1.9,1.1c0.2,0.1,0.4,0.1,0.6,0c0.1,0,0.5-0.2,1-0.5
			c0.3-0.2,0.7-0.2,1,0.1c1,0.7,0.7,2.3-0.7,4.9c-1.2,2.2-2.2,3.1-3.2,2.5c-0.2-0.2-0.4-0.3-0.5-0.5c-0.1-0.2-0.1-0.6,0-1.2
			c0-0.4,0-0.7-0.2-1c-0.2-0.3-0.6-0.6-1.2-1.1c-0.7-0.5-1.8-1.3-3.4-2.4c-1.6-1.1-2.9-2-4.1-2.7c-1.4-0.9-2.4-1.2-3.1-1.3
			c-0.2,0-0.4,0-0.6,0.1c-0.1,0.1-0.4,0.2-0.7,0.5c-0.7,0.6-1.3,0.8-1.7,0.5c-0.3-0.2-0.5-0.5-0.6-0.9c-0.1-0.4-0.1-0.9,0.1-1.5
			c0.1-0.5,0.4-1.2,0.7-2.1c0.3-0.8,0.7-1.5,1-2.1c0.8-1.4,1.4-2.3,1.9-2.7c0.2-0.2,0.5-0.4,0.7-0.4c0.2-0.1,0.7-0.1,1.3-0.1
			c2.7,0,3.9-0.1,6.6,0.2c0.7,0.1,1.2,0.1,1.4,0.1c0.2,0,0.4-0.2,0.5-0.4c0.1-0.2,0.2-0.4,0.1-0.6c0-0.2-0.2-0.6-0.4-1
			c-0.9-1.9-1.2-2.7-1.9-4.5c-0.2-0.6-0.4-0.9-0.5-1.1c-0.5-1.1-0.6-2-0.6-2.6c0.1-0.8,0.7-2.1,1.8-3.6c2-2.6,3.5-3.4,4.5-2.5
			c0.2,0.2,0.3,0.4,0.4,0.6c0,0.2,0,0.6,0,1c-0.1,0.6,0.1,1.3,0.5,1.8c0.8,1.1,2,2.4,3.6,3.8c2,1.8,3.8,3.3,5.5,4.5
			c0.4,0.3,0.7,0.4,0.9,0.5c0.2,0,0.6,0,1.2-0.2c0.4-0.1,0.8,0,1.1,0.3c0.5,0.5,0.6,1.2,0.3,2.1c-0.2,0.5-0.4,0.9-0.7,1.4
			c-0.3,0.4-0.7,1.1-1.4,2c-1,1.3-1.8,2.3-2.5,2.8c-0.7,0.6-1.4,0.7-1.9,0.2c-0.2-0.2-0.3-0.3-0.4-0.5s-0.1-0.6-0.2-1.3
			c0-0.4-0.3-0.8-0.7-1.3s-1.2-1.2-2.4-2.2c-0.7-0.5-1.1-0.8-1.4-1c-0.3-0.1-0.5,0-0.6,0.2c-0.2,0.2-0.2,0.6,0,1.1
			C80.3,111.8,80.7,112.6,81.3,113.8z"/>
		<path class="st2" d="M80.6,90.7c2.3-2.7,3.5-3.9,6-6.4c1.2-1.2,2.1-2.1,2.7-2.8s1-1.2,1.5-1.9c0.1-0.2,0.3-0.4,0.4-0.4
			c0.4-0.4,1-0.5,1.7-0.3c1.1,0.3,2.1,1,2.9,2c0.4,0.5,0.6,1.1,0.6,1.6c0,0.5-0.2,0.9-0.6,1.3c-0.3,0.2-0.5,0.4-0.7,0.4
			c-0.2,0-0.6,0-1.2-0.2c-0.8-0.2-1.5-0.2-2.2,0.1c-0.7,0.3-1.6,1.1-2.8,2.3c-0.9,0.9-1.3,1.6-1.2,2.1c0,0.3,0.2,0.6,0.4,0.9
			c0.2,0.3,0.8,1,1.9,2.2c0.4,0.5,0.8,0.7,1,0.6c0.3,0,0.7-0.4,1.3-1c0.3-0.3,0.5-0.6,0.5-0.9c0-0.3-0.1-0.6-0.4-1
			c-0.4-0.5-0.5-0.9-0.6-1.1c-0.1-0.2-0.1-0.5,0-0.8c0-0.3,0.2-0.6,0.4-0.8c0.3-0.3,0.7-0.4,1.2-0.3c0.3,0.1,0.8,0.4,1.4,0.9
			c0.6,0.5,1.2,1.1,1.7,1.7c1.1,1.3,1.8,2.5,2.1,3.7c0.2,0.6,0.1,1.1-0.3,1.5c-0.2,0.2-0.5,0.3-0.7,0.3c-0.2,0-0.5-0.3-1-0.7
			c-0.9-0.8-1.8-0.8-2.6,0.1c-0.3,0.3-0.4,0.7-0.4,1c0.1,0.3,0.4,0.8,1,1.4c0.3,0.4,0.8,0.8,1.4,1.3c0.6,0.5,1,0.9,1.2,1
			c0.3,0.2,0.6,0.2,1,0c0.4-0.2,0.9-0.6,1.6-1.3c1-1,1.7-1.9,2-2.7c0.3-0.8,0.3-1.8-0.1-2.9c-0.2-0.7-0.3-1.2-0.2-1.5
			c0-0.3,0.2-0.6,0.5-0.8c0.3-0.3,0.7-0.3,1.2-0.2c0.4,0.1,0.8,0.4,1.2,0.9c0.4,0.5,0.8,1.2,1.1,2.2c0.4,0.9,0.6,1.9,0.8,2.7
			c0.1,0.4,0.1,0.7,0,0.9c0,0.2-0.1,0.4-0.3,0.5c-0.1,0.1-0.3,0.3-0.6,0.4c-0.5,0.3-1.2,0.8-1.9,1.5c-3.5,3.3-5.2,5.1-8.4,8.9
			c-0.3,0.4-0.7,0.6-1,0.6c-0.3,0-0.7-0.1-1-0.4c-0.2-0.2-0.3-0.4-0.4-0.6c0-0.2,0-0.5,0.1-1c0.1-0.3,0.1-0.6,0.1-0.9
			c-0.1-0.2-0.2-0.5-0.4-0.9c-0.9-1.4-2.4-3-4.3-4.9c-2.9-2.9-4.8-4.4-5.9-4.7c-0.2-0.1-0.4-0.1-0.5,0c-0.1,0-0.4,0.2-0.7,0.4
			c-0.5,0.4-1,0.4-1.4-0.1c-0.2-0.2-0.4-0.5-0.4-0.9c0-0.3,0-0.7,0.2-1C79.3,92.3,79.8,91.6,80.6,90.7z"/>
		<path class="st2" d="M112,63.9c1.4-0.8,2.8-1.3,4.4-1.4c0.7,0,1.2-0.1,1.5-0.3c0.2-0.1,0.4-0.3,0.8-0.6c0.1-0.1,0.2-0.2,0.4-0.3
			c0.5-0.3,1-0.3,1.6,0c1.4,0.6,2.5,1.8,3.3,3.5c0.5,1.2,0.5,2.2,0,3.2c-0.3,0.5-0.7,0.9-1.2,1.1c-0.5,0.2-0.9,0.3-1.3,0.3
			c-0.4-0.1-0.9-0.3-1.4-0.7c-0.8-0.5-1.4-0.9-1.8-1.1c-0.4-0.2-0.9-0.3-1.4-0.4c-1.2-0.1-2.3,0.1-3.3,0.7c-0.9,0.6-1.5,1.4-1.6,2.4
			c-0.2,1,0.1,2.1,0.8,3.3c0.9,1.6,2.2,2.8,3.7,3.6c2,1.1,3.9,1.2,5.7,0.1c0.7-0.4,1.3-0.9,1.8-1.5c0.5-0.6,0.9-1.2,1.1-1.9
			c0.2-0.5,0.4-0.8,0.6-0.9c0.3-0.2,0.6-0.1,1,0.1c0.4,0.2,0.6,0.5,0.8,1c0.3,0.6,0.4,1.3,0.4,2.1c0,0.8-0.1,1.6-0.3,2.2
			c-0.1,0.3-0.4,0.6-0.9,1c-0.3,0.2-0.6,0.6-1,1.2c-0.9,1.3-1.9,2.4-3.2,3.1c-1.3,0.8-2.8,1.3-4.5,1.4c-2,0.2-3.9-0.2-5.9-1.1
			c-1.9-0.9-3.4-2.2-4.6-3.9c-1.3-2-1.9-4.2-1.7-6.7c0.2-2.2,0.9-4.2,2.2-6.2C109.3,65.9,110.5,64.8,112,63.9z"/>
		<path class="st2" d="M133.5,60.2c1.7-0.7,3.5-0.8,5.1-0.3c1.2,0.4,2.2,1,3.1,2c0.9,1,1.6,2.2,1.9,3.5c0.6,2.3,0.3,4.5-0.9,6.6
			c-1.2,2.1-2.7,3.5-4.8,4.3c-2,0.8-3.9,0.8-5.7,0.1c-1.8-0.7-3.1-2.1-4-4.2c-1-2.3-1.1-4.6-0.1-6.8C129.2,63,131,61.2,133.5,60.2z
			 M133.7,64.2c-0.4,0.2-0.7,0.5-0.8,0.9c-0.1,0.4-0.1,0.9,0.1,1.5c0.2,0.6,0.6,1.4,1.2,2.3c0.6,1,1.2,1.8,1.7,2.5
			c0.6,0.7,1.2,1,1.8,0.7c0.8-0.3,1-1,0.6-2.2c-0.3-0.9-0.7-1.8-1.3-2.8c-0.6-1-1.1-1.8-1.7-2.4C134.8,64.1,134.2,64,133.7,64.2z"/>
		<path class="st2" d="M149.2,55.1c0.5-0.1,0.9-0.1,1,0c0.1,0.1,0.4,0.6,0.6,1.4c0.2,0.5,0.4,0.7,0.6,0.6c0.2,0,0.3-0.2,0.5-0.6
			c0.5-1.5,1.4-2.4,2.7-2.7c0.9-0.2,1.7,0,2.4,0.5c0.3,0.3,0.6,0.6,0.9,1.1c0.3,0.5,0.4,0.9,0.5,1.4c0.1,0.5,0.1,1.1-0.1,1.6
			c-0.1,0.6-0.3,1.1-0.6,1.5c-0.5,0.8-1.2,1.3-2.1,1.5c-0.5,0.1-0.9,0.1-1.3,0c-0.4-0.1-0.9-0.4-1.5-0.9c-0.2-0.2-0.5-0.2-0.6-0.2
			c-0.3,0.1-0.4,0.3-0.4,0.6c0,0.4,0.1,1.1,0.3,2.2c0.3,1.6,0.6,2.7,0.8,3.3c0.1,0.3,0.3,0.5,0.4,0.6c0.1,0.1,0.4,0.2,0.8,0.2
			c0.9,0.1,1.4,0.5,1.5,1.2c0.1,0.4,0,0.8-0.1,1.2c-0.2,0.4-0.5,0.7-0.9,0.9c-0.8,0.4-2,0.8-3.6,1.2c-1.5,0.4-2.7,0.6-3.6,0.5
			c-0.8-0.1-1.3-0.5-1.5-1.2c-0.2-0.5,0-1.1,0.4-1.7c0.2-0.3,0.3-0.5,0.4-0.7c0.1-0.2,0.1-0.4,0-0.7c-0.1-1-0.5-2.8-1.2-5.4
			c-0.1-0.5-0.3-0.8-0.4-1c-0.1-0.2-0.4-0.3-0.7-0.3c-0.7-0.1-1.2-0.4-1.4-1c-0.1-0.5,0-1,0.3-1.5c0.4-0.5,1.1-1.1,2.1-1.8
			C146.9,56,148.2,55.4,149.2,55.1z"/>
		<path class="st2" d="M166.3,51.8c0.6-0.1,1-0.1,1.2,0c0.2,0.1,0.3,0.4,0.3,0.8c0,0.4,0.2,0.6,0.4,0.6c0.1,0,0.4-0.3,1-0.7
			c0.4-0.4,0.9-0.7,1.6-0.9c0.7-0.3,1.3-0.4,1.8-0.5c1.3-0.1,2.5,0.3,3.5,1.2c0.8,0.7,1.4,1.6,1.8,2.7c0.4,1.2,0.6,2.4,0.6,3.7
			c0,2.8-0.8,5.1-2.3,7c-1.2,1.4-2.4,2.2-3.9,2.3c-0.8,0.1-1.6-0.1-2.4-0.4c-0.2-0.1-0.3-0.1-0.4-0.1c-0.3,0-0.4,0.4-0.3,1
			c0.1,0.8,0.4,1.4,0.9,1.7c0.5,0.3,0.8,0.5,0.8,0.6c0.1,0.1,0.2,0.3,0.2,0.6c0.1,0.6-0.2,1.1-0.7,1.5c-0.5,0.4-1.3,0.6-2.3,0.7
			c-1.8,0.2-3.5,0.1-5.1-0.6c-0.8-0.3-1.3-0.8-1.4-1.5c-0.1-0.3-0.1-0.6,0-0.7c0.1-0.2,0.3-0.4,0.5-0.6c0.4-0.3,0.6-0.8,0.6-1.5
			c0-0.7-0.2-2.7-0.6-5.9c-0.3-2.7-0.7-4.2-0.8-4.5c-0.1-0.1-0.1-0.2-0.2-0.2c-0.1,0-0.3,0-0.7-0.1c-0.3,0-0.6-0.1-0.8-0.4
			c-0.2-0.2-0.4-0.5-0.4-0.9c-0.1-0.4,0-0.8,0.2-1.2c0.2-0.4,0.6-0.8,1.2-1.2C162.9,52.9,164.8,52,166.3,51.8z M168.3,57.9
			c0,1.8,0.1,2.8,0.1,4.6c0,0.2,0,0.4,0,0.6c0,0.3,0.2,0.6,0.4,0.8c0.3,0.2,0.6,0.2,1,0.2c1.3-0.1,1.9-1.4,1.7-4
			c-0.1-1.6-0.4-2.8-1-3.4c-0.4-0.4-0.8-0.5-1.3-0.5C168.6,56.3,168.3,56.9,168.3,57.9z"/>
		<path class="st2" d="M189,51c1.8,0.1,3.4,0.7,4.7,1.9c0.9,0.8,1.6,1.9,2,3.1c0.5,1.3,0.6,2.7,0.4,4c-0.3,2.4-1.5,4.3-3.4,5.8
			c-1.9,1.4-3.9,2.1-6,2c-2.1-0.1-3.9-0.8-5.2-2.3c-1.3-1.4-2-3.3-1.9-5.7c0-2.6,0.9-4.8,2.7-6.5C184.1,51.7,186.3,50.9,189,51z
			 M187.6,54.7c-0.4,0-0.8,0.1-1.1,0.5c-0.3,0.4-0.4,0.8-0.5,1.4c0,0.7,0,1.6,0.2,2.7c0.1,1.2,0.3,2.2,0.6,3.1
			c0.2,0.9,0.7,1.4,1.3,1.4c0.8,0,1.3-0.6,1.4-1.8c0.1-0.9,0.1-2-0.1-3.2c-0.1-1.2-0.3-2.2-0.6-2.9
			C188.6,55.2,188.1,54.8,187.6,54.7z"/>
		<path class="st2" d="M205.1,53.1c0.5,0.1,0.8,0.2,0.9,0.4c0.1,0.2,0.1,0.7,0,1.6c0,0.5,0.1,0.7,0.3,0.8c0.2,0,0.4-0.1,0.6-0.4
			c1-1.2,2.2-1.6,3.5-1.3c0.9,0.2,1.6,0.7,2,1.4c0.2,0.4,0.3,0.8,0.4,1.3c0.1,0.5,0,1-0.1,1.5c-0.1,0.5-0.3,1-0.7,1.5
			c-0.3,0.5-0.7,0.8-1.1,1.1c-0.7,0.5-1.5,0.7-2.4,0.5c-0.5-0.1-0.9-0.3-1.1-0.6s-0.6-0.7-1-1.4c-0.2-0.3-0.3-0.4-0.5-0.5
			c-0.3-0.1-0.5,0.1-0.6,0.4c-0.1,0.3-0.3,1-0.5,2.1c-0.3,1.6-0.5,2.8-0.5,3.4c0,0.3,0.1,0.6,0.1,0.7c0.1,0.1,0.3,0.3,0.7,0.5
			c0.8,0.5,1.1,1,0.9,1.8c-0.1,0.4-0.3,0.8-0.6,1.1c-0.3,0.3-0.7,0.4-1.1,0.4c-0.9,0-2.1-0.1-3.8-0.3c-1.6-0.3-2.7-0.6-3.5-1
			c-0.7-0.4-1-1-0.9-1.7c0.1-0.6,0.4-1,1-1.4c0.3-0.2,0.5-0.3,0.6-0.5c0.1-0.2,0.2-0.4,0.3-0.7c0.3-1,0.6-2.8,1-5.5
			c0.1-0.5,0.1-0.9,0-1.1s-0.2-0.4-0.5-0.6c-0.6-0.4-0.9-0.9-0.9-1.5c0.1-0.5,0.4-0.9,0.9-1.3c0.5-0.3,1.4-0.6,2.6-0.7
			C202.7,52.9,204.1,52.9,205.1,53.1z"/>
		<path class="st2" d="M222.5,57.5c1.7,0.6,3,1.5,3.8,2.8c0.4,0.7,0.7,1.4,0.7,2.1c0,0.7-0.2,1.6-0.5,2.7c-0.3,0.9-0.5,1.4-0.8,2.3
			c-0.6,1.6-0.8,2.6-0.8,3.2c0,0.3,0.1,0.4,0.1,0.5c0.1,0.1,0.2,0.2,0.5,0.4c0.3,0.2,0.3,0.4,0.2,0.8c-0.2,0.5-0.5,0.9-1,1.3
			c-0.5,0.4-1.1,0.7-1.7,0.8c-0.8,0.2-1.5,0.2-2.2-0.1c-0.9-0.3-1.5-0.9-1.8-1.8c-0.1-0.3-0.2-0.5-0.4-0.6c-0.2-0.1-0.4,0-0.8,0.2
			c-1.1,0.5-2.2,0.5-3.3,0.2c-1.1-0.3-2-0.9-2.5-1.6c-0.4-0.5-0.6-1.1-0.7-1.8c-0.1-0.7-0.1-1.4,0.1-2.1c0.3-1.1,0.9-2,1.9-2.6
			c1.5-1,3.5-1.2,5.9-0.4c0.5,0.2,0.9,0.2,1.1,0.1c0.2-0.1,0.3-0.3,0.5-0.8c0.3-1.1,0.5-1.9,0.4-2.5c-0.1-0.6-0.3-0.9-0.8-1.1
			c-0.3-0.1-0.6-0.1-0.8,0c-0.3,0.1-0.6,0.4-1.1,0.8c-1.2,1.1-2.2,1.5-3.1,1.2c-0.5-0.1-0.8-0.4-1-0.8c-0.2-0.4-0.3-0.8-0.1-1.3
			c0.1-0.5,0.4-1,0.9-1.4c0.5-0.4,1.1-0.7,1.8-0.9C218.6,56.7,220.6,56.8,222.5,57.5z M218.8,66.2c-0.4-0.1-0.8,0-1.2,0.2
			c-0.4,0.3-0.7,0.7-0.8,1.2c-0.1,0.5-0.2,0.9,0,1.3c0.1,0.4,0.3,0.6,0.7,0.7c0.7,0.2,1.3-0.4,1.7-1.8c0.2-0.6,0.2-1,0.2-1.2
			C219.3,66.4,219.1,66.3,218.8,66.2z"/>
		<path class="st2" d="M237.6,68.3c-0.9,2-1.3,3-2.2,4.9c-0.3,0.6-0.4,1.1-0.3,1.6c0.1,0.5,0.3,0.8,0.7,1c0.3,0.2,0.9,0.2,1.6,0.2
			c0.2,0,0.3,0,0.4,0.1c0.2,0.1,0.3,0.3,0.4,0.7c0,0.4,0,0.7-0.2,1c-0.3,0.6-0.9,1-1.7,1.3c-1.7,0.5-3.4,0.4-5.1-0.4
			c-1.3-0.6-2.2-1.5-2.7-2.8c-0.5-1.3-0.4-2.6,0.2-4.1c1.1-2.8,1.6-4.2,2.7-6.9c0.1-0.2,0.1-0.4,0.1-0.5c0-0.1-0.2-0.2-0.4-0.3
			c-0.6-0.2-0.9-0.4-1.4-0.6c-0.3-0.1-0.4-0.2-0.5-0.4c0-0.1,0-0.4,0.1-0.7c0.1-0.3,0.1-0.4,0.2-0.7c0.1-0.3,0.3-0.5,0.6-0.5
			c3.3-0.7,4.9-0.9,8.3-1.4c0.2,0,0.4,0,0.7,0.2c0.5,0.2,0.7,0.3,1.2,0.6c0.2,0.1,0.4,0.3,0.4,0.4c0,0.2,0,0.4-0.2,0.7
			c-0.4,0.8-0.5,1.2-0.9,2c-0.1,0.3-0.2,0.5-0.1,0.6c0,0.1,0.2,0.3,0.5,0.4c1,0.5,1.6,0.8,2.6,1.3c0.3,0.2,0.5,0.4,0.6,0.5
			c0,0.2,0,0.5-0.3,0.9c-0.2,0.3-0.2,0.5-0.4,0.8c-0.2,0.5-0.4,0.7-0.7,0.8c-0.2,0.1-0.5,0.1-0.8-0.1c-1-0.5-1.5-0.8-2.5-1.3
			c-0.3-0.1-0.5-0.2-0.6-0.1C237.9,67.9,237.7,68,237.6,68.3z"/>
		<path class="st2" d="M251.3,72.5c-1.8,3.2-2.8,4.8-4.7,8c-0.4,0.6-0.6,1.1-0.7,1.5c-0.1,0.4,0,0.8,0.1,1.2
			c0.1,0.4,0.2,0.6,0.2,0.8c0,0.2-0.1,0.4-0.2,0.6c-0.7,1.2-2.3,0.9-4.9-0.7c-1.4-0.8-2.4-1.6-3.1-2.3c-0.2-0.3-0.4-0.5-0.4-0.9
			c-0.1-0.3,0-0.7,0.1-1c0.1-0.3,0.3-0.4,0.4-0.5c0.2-0.1,0.5-0.2,1-0.3c0.4-0.1,0.7-0.3,1.1-0.8c0.4-0.4,0.8-1.1,1.3-2.1
			c0.2-0.3,0.4-0.9,0.9-1.8c0.4-0.9,0.6-1.4,0.7-1.5c0.1-0.4,0.1-0.9-0.3-1.3c-0.4-0.6-0.5-1.1-0.3-1.6c0.3-0.6,0.9-0.8,1.8-0.7
			c1.2,0.2,2.5,0.4,3.8,0.8s2.3,0.8,2.9,1.2C251.5,71.5,251.6,71.9,251.3,72.5z M251.9,64.7c0.8,0.5,1.4,1,1.7,1.6
			c0.3,0.6,0.3,1.2,0,1.7c-0.4,0.7-1.1,1.1-2,1c-1.5,0-3-0.5-4.5-1.4c-0.7-0.4-1.1-0.8-1.4-1.3c-0.4-0.6-0.4-1.3-0.1-1.9
			c0.4-0.8,1.3-1.2,2.7-1C249.7,63.7,250.9,64.1,251.9,64.7z"/>
		<path class="st2" d="M262,78.8c1.5,1.2,2.6,2.7,3.1,4.4c0.4,1.2,0.4,2.5,0.1,3.8c-0.3,1.4-0.9,2.6-1.7,3.6
			c-1.5,1.8-3.4,2.6-5.9,2.6c-2.3,0-4.4-0.7-6.2-2c-1.8-1.4-2.8-3-3.2-5c-0.4-2,0-3.9,1.2-5.8c1.3-2.1,3.1-3.4,5.5-3.7
			C257.5,76.4,259.9,77,262,78.8z M259,81c-0.3-0.3-0.7-0.4-1.2-0.2c-0.4,0.1-0.8,0.4-1.1,0.9c-0.4,0.5-0.8,1.3-1.2,2.3
			c-0.5,1-0.8,2-1.1,2.9c-0.3,0.9-0.1,1.5,0.4,2c0.7,0.5,1.4,0.3,2.1-0.6c0.5-0.7,1.1-1.6,1.5-2.7c0.5-1.1,0.8-2,1-2.8
			C259.6,82,259.4,81.4,259,81z"/>
		<path class="st2" d="M278.7,103.4c-1.6,1.6-2.4,2.4-4,3.9c-0.3,0.3-0.5,0.6-0.6,0.8c-0.1,0.2-0.2,0.7-0.3,1.5
			c0,0.2-0.2,0.4-0.4,0.7c-0.5,0.5-1.1,0.5-1.8,0c-0.7-0.4-1.6-1.4-2.9-2.9c-0.9-1-1.4-1.8-1.6-2.4c-0.2-0.6-0.1-1.1,0.3-1.6
			c0.1-0.2,0.3-0.2,0.4-0.3c0.1,0,0.4-0.1,0.9-0.1c0.6,0,1.8-0.9,3.5-2.7c1-1,1.7-1.9,2-2.7c0.2-0.6,0.1-1.2-0.4-1.7
			c-0.5-0.5-1-0.7-1.5-0.6c-0.5,0.1-1.2,0.6-2,1.5c-0.9,0.9-1.3,1.4-2.2,2.3c-0.4,0.5-0.7,0.8-0.8,1c-0.1,0.2-0.3,0.7-0.4,1.5
			c-0.1,0.2-0.2,0.4-0.3,0.6c-0.4,0.5-1,0.5-1.8,0.1c-0.7-0.4-1.7-1.1-2.9-2.3c-1.9-1.9-2.5-3.2-1.7-4.1c0.2-0.2,0.3-0.3,0.5-0.4
			c0.1,0,0.4-0.1,0.8,0c0.3,0,0.6,0,0.8-0.2s0.7-0.6,1.4-1.3c0.8-0.9,1.7-1.8,2.6-2.8c0.5-0.6,0.8-1,0.8-1.2c0.1-0.2,0-0.7-0.1-1.3
			c-0.1-0.5-0.1-0.9,0.2-1.3c0.3-0.3,0.6-0.5,1.1-0.4c0.4,0,1.2,0.3,2.3,0.8c1,0.4,1.9,0.9,2.7,1.4c0.8,0.5,1.4,0.9,1.6,1.1
			c0.2,0.2,0.3,0.5,0.3,0.8c0,0.3-0.1,0.6-0.3,0.8c0,0-0.1,0.1-0.3,0.3c-0.1,0.1-0.1,0.1-0.2,0.1c-0.4,0.4-0.4,0.7-0.1,1
			c0.2,0.2,0.5,0.2,1,0.2c1.5-0.3,2.8,0.3,4,1.6c0.9,1,1.4,2.2,1.6,3.4c0.1,0.9,0,1.6-0.4,2.3S279.6,102.5,278.7,103.4z"/>
		<path class="st2" d="M294.5,118.7c-2.3,1.4-3.6,2.3-6,3.9c-1.4,0.9-2.2,1.6-2.4,2.1c-0.3,0.6-0.2,1.4,0.4,2.4
			c0.6,1.1,1.2,1.8,2,2.2c0.8,0.4,1.7,0.4,2.8,0.1c0.7-0.2,1.1,0,1.4,0.5c0.3,0.5,0.2,1.1,0,1.7c-0.3,0.6-0.8,1.1-1.5,1.4
			c-1.1,0.6-2.5,0.8-4.2,0.7c-0.5,0-0.9-0.1-1.2-0.3c-0.2-0.1-0.4-0.3-0.6-0.6c-0.5-1.3-0.7-2-1.2-3.3c-2-3.9-3.1-5.8-5.4-9.3
			c-0.4-0.6-0.6-1.1-0.6-1.4c0-0.5,0.1-0.9,0.5-1.2c0.2-0.2,0.4-0.3,0.6-0.2c0.2,0,0.5,0.2,1,0.5c0.5,0.3,1.1,0.4,1.6,0.2
			c0.4-0.1,1.5-0.8,3.1-2.1c0.8-0.6,1.9-1.4,3.3-2.6c1.4-1.1,2.4-1.9,3.1-2.4c0.6-0.5,1.1-0.8,1.2-1.1c0.2-0.3,0.2-0.7,0-1.1
			c-0.2-0.8-0.3-1.3-0.4-1.6c0-0.5,0.1-0.8,0.4-1c0.6-0.4,1.4-0.2,2.5,0.8c0.9,0.8,1.9,2.1,3,3.9c1.2,2,2,3.6,2.4,4.8
			c0.5,1.5,0.4,2.4-0.3,2.8c-0.3,0.2-0.5,0.2-0.8,0.1c-0.2-0.1-0.6-0.4-1.2-1c-0.4-0.3-0.7-0.4-1.1-0.3
			C296.4,117.6,295.6,118,294.5,118.7z"/>
		<path class="st2" d="M300.9,140.2c-1.9,0.9-2.9,1.3-4.8,2.1c-0.6,0.3-1,0.6-1.2,1.1c-0.2,0.5-0.3,1-0.1,1.5
			c0.1,0.4,0.5,0.9,1.1,1.5c0.1,0.1,0.2,0.3,0.3,0.4c0.1,0.3,0,0.6-0.2,0.9c-0.2,0.3-0.5,0.6-0.8,0.7c-0.6,0.2-1.3,0.1-2.1-0.4
			c-1.7-1.1-2.9-2.6-3.6-4.7c-0.6-1.6-0.7-3.1-0.3-4.5c0.4-1.4,1.3-2.5,2.7-3.2c2.5-1.3,3.8-2,6.4-3.4c0.2-0.1,0.3-0.2,0.4-0.3
			c0-0.1,0-0.3-0.1-0.5c-0.3-0.7-0.4-1-0.7-1.7c-0.1-0.3-0.2-0.5-0.1-0.7c0-0.1,0.2-0.3,0.5-0.5c0.2-0.1,0.4-0.2,0.6-0.3
			c0.3-0.1,0.5-0.1,0.8,0.1c2.9,2.2,4.3,3.4,7.2,6c0.2,0.2,0.3,0.4,0.4,0.7c0.2,0.6,0.3,0.9,0.5,1.4c0.1,0.3,0.1,0.5,0.1,0.7
			c-0.1,0.1-0.3,0.3-0.6,0.4c-0.8,0.3-1.1,0.4-1.9,0.7c-0.3,0.1-0.4,0.2-0.5,0.4c0,0.1,0,0.4,0.1,0.8c0.5,1.3,0.7,2,1.1,3.3
			c0.1,0.4,0.2,0.8,0.1,0.9c-0.1,0.2-0.3,0.3-0.8,0.5c-0.3,0.1-0.5,0.2-0.8,0.3c-0.5,0.2-0.8,0.2-1,0.1c-0.2-0.1-0.4-0.4-0.6-0.8
			c-0.4-1.3-0.6-1.9-1.1-3.1c-0.1-0.3-0.2-0.5-0.4-0.6C301.3,140,301.1,140.1,300.9,140.2z"/>
		<path class="st2" d="M316.4,166.9c-5.5,0.9-8.2,1.4-13.6,2.4c-0.8,0.2-1.3,0.3-1.5,0.4c-0.2,0.1-0.4,0.4-0.5,0.8
			c-0.2,0.5-0.3,0.8-0.5,1c-0.2,0.2-0.4,0.3-0.6,0.4c-0.8,0.1-1.6-0.7-2.3-2.6c-0.7-1.7-1.2-3.3-1.6-5c-0.1-0.4-0.1-0.6,0-0.8
			c0.1-0.1,0.3-0.3,0.6-0.4c0.5-0.2,0.7-0.5,0.6-0.8c0-0.2-0.3-0.5-0.7-0.8c-1.1-1-1.8-2.1-2.2-3.5c-0.5-1.7-0.3-3.5,0.4-5.2
			c0.4-1,1-2,1.7-2.8c0.9-1.1,1.9-1.9,3.1-2.3c1.3-0.5,2.8-0.6,4.3-0.1c1.4,0.4,2.7,1.3,3.7,2.7c0.9,1.1,1.5,2.4,1.8,3.7
			c0.4,1.5,0.4,2.9,0.2,4.2c0,0.2,0,0.4,0,0.5c0.1,0.4,0.6,0.5,1.4,0.4c0.4-0.1,0.6-0.3,0.8-0.5c0.1-0.3,0.2-0.7,0.2-1.3
			c0-0.9,0.2-1.4,0.7-1.5c0.7-0.2,1.5,0.7,2.3,2.5c1.5,3.3,2.3,5.6,2.5,6.9C317.6,166.1,317.3,166.7,316.4,166.9z M306.8,157.6
			c-0.2-0.8-0.7-1.4-1.5-1.6c-1.1-0.4-2.3-0.3-3.8,0.2c-1.3,0.4-2.2,1-2.8,1.8c-0.4,0.6-0.5,1.2-0.3,1.9c0.2,0.8,0.7,1.2,1.5,1.4
			c0.8,0.2,2.1,0,3.7-0.4c1.5-0.4,2.5-0.9,2.9-1.5C306.8,158.8,306.9,158.2,306.8,157.6z"/>
		<path class="st2" d="M305.2,177.5c0.2,1.3,0,2.4-0.6,3.4c-0.6,1-1.4,1.5-2.5,1.6c-1,0.1-1.9-0.3-2.7-1.2c-0.8-0.8-1.2-1.8-1.4-3
			c-0.1-1.2,0-2.2,0.6-3.2c0.5-1,1.3-1.6,2.4-1.7c1-0.2,2,0.1,2.8,1C304.5,175.2,305,176.3,305.2,177.5z"/>
	</g>
</g>
<g>
	<g>
		<path class="st2" d="M137.8,308.8c-7.2-2.6-10.7-4.2-17.6-7.9c-1.5-0.8-2.1-1.6-1.9-2.2c0.1-0.3,0.4-0.5,0.8-0.7
			c0.4-0.1,1.7-0.3,3.9-0.7c4-0.7,7-1.8,9.2-3.2c1.1-0.7,1.8-1.4,2-2.2c0.2-0.7,0.1-1.3-0.2-1.9c-0.3-0.6-0.9-1.1-1.6-1.4
			c-0.7-0.3-1.3-0.5-1.7-0.5c-0.4,0-1.4,0.1-3,0.4c-0.4,0.1-0.9-0.1-1.5-0.4c-0.7-0.4-1.3-1-1.7-1.8c-0.4-0.8-0.5-1.5-0.3-2
			c0.2-0.5,0.7-0.9,1.5-1.2c0.8-0.3,1.7-0.5,2.8-0.6c3.9-0.3,7.8,0.4,11.8,2c3,1.2,5.4,2.6,7.2,4.3c0.8,0.8,1.4,1.7,1.8,2.7
			c0.4,1,0.5,2,0.3,2.9c-0.5,2.4-3,4.5-7.7,5.8c-1.7,0.5-2.6,0.9-2.7,1.4c-0.1,0.4,0,0.8,0.4,1.2c0.4,0.4,0.9,0.7,1.5,1
			c1.5,0.5,3,0.5,4.3-0.1c0.7-0.3,1.2-0.4,1.4-0.5c0.2,0,0.5,0,0.8,0.1c1.5,0.4,2.1,1.7,1.7,3.7c-0.2,1-0.6,2-1.3,2.9
			s-1.6,1.6-2.6,2.1c-1.1,0.5-2.2,0.6-3.3,0.3c-0.4-0.1-0.8-0.3-1-0.6c-0.2-0.2-0.5-0.6-0.7-1.1c-0.2-0.5-0.5-0.8-0.8-1.1
			C139.2,309.3,138.6,309.1,137.8,308.8z"/>
		<path class="st2" d="M167.8,291.4c2.2,0.3,4.2,0.9,6.2,2c2.7,1.4,4.8,3.4,6.2,5.9c1,1.8,1.6,3.8,1.6,5.8c0,3.8-1.8,6.9-5.6,9.1
			c-2.9,1.7-6.3,2.4-10,1.9c-4.1-0.5-7.5-2.1-10-4.7c-3-3-4-6.6-3.3-10.5c0.7-3.8,2.6-6.5,5.6-8.1
			C161.2,291.4,164.3,290.9,167.8,291.4z M166.7,297.5c-1.5-0.2-2.4,0.8-2.7,3c-0.3,2.9,0.1,5.6,1.3,8.1c0.5,1,1.2,1.5,2.1,1.6
			c1.6,0.2,2.5-0.9,2.7-3.1c0.1-1.3,0-2.6-0.2-4.1c-0.2-1.5-0.6-2.7-1-3.6C168.4,298.3,167.7,297.7,166.7,297.5z"/>
		<path class="st2" d="M186,312.3c0.2,0,0.9,0,1.8,0.1c0.4,0,0.8,0,1,0c1.5-0.1,2.4-1.1,2.5-3c0.1-1.1,0-4.1-0.3-9.1
			c0-0.8-0.3-1.3-0.6-1.5c-0.4-0.3-1.1-0.4-2-0.3c-0.2,0-0.6,0.1-1,0.1c-0.3,0-0.6,0.1-0.9,0.1c-0.6,0-1-0.1-1.4-0.3
			c-0.4-0.2-0.5-0.6-0.5-1c0-0.4,0.2-0.9,0.8-1.4s1.2-0.9,2.1-1.3c4.5-1.9,9.2-3.3,14.3-4.2c1.4-0.3,2.4-0.3,3.1-0.2
			c0.7,0.2,1,0.5,1.1,1.2c0.1,0.4,0,0.7-0.2,0.9c-0.2,0.2-0.6,0.6-1.2,0.9c-0.9,0.6-1.5,1.1-1.5,1.7c-0.1,0.6,0,2.8,0.5,6.4
			c0.5,3.6,1,5.7,1,5.9c0.1,0.3,0.2,0.6,0.4,1.1c0.3,0.7,0.8,1.1,1.4,1.3c0.6,0.2,1.7,0.1,3.2-0.2c1.7-0.3,2.6,0,2.8,1
			c0.2,1-0.9,2-3.2,2.9c-3.3,1.2-6.7,2-10.3,2.5c-2.4,0.3-4.6,0.4-6.7,0.4c-2.6-0.1-4.7-0.3-6.2-0.7c-1.4-0.3-2.1-0.9-2.1-1.7
			c0-0.4,0.2-0.8,0.7-1.1C184.8,312.5,185.4,312.4,186,312.3z"/>
		<path class="st2" d="M222.8,281.9c3.1-1.3,6.1-2.1,9-2.5c1.6-0.2,3-0.1,4.2,0.4c0.9,0.4,1.6,1,1.9,2c0.6,1.5,0.1,3.3-1.5,5.5
			c-0.5,0.6-0.7,1.1-0.6,1.2c0.1,0.2,0.5,0.3,1.4,0.3c1.2,0,2.3,0.4,3.3,0.9c1,0.6,1.6,1.4,2,2.3c0.6,1.5,0.5,3.3-0.4,5.5
			c-1.5,3.8-5.1,7.2-10.7,9.6c-3.9,1.6-7.5,2.3-10.8,2.2c-2.2-0.1-4.1-0.6-5.5-1.6c-1.1-0.7-1.7-1.8-1.9-3.1
			c-0.3-1.8,0.4-3.5,2.2-5.2c0.6-0.6,0.9-1.1,0.9-1.3c0-0.2-0.4-0.4-1.1-0.7c-1.8-0.8-2.9-2.1-3.2-3.8c-0.5-2.4,0.6-4.7,3-7
			C217,284.7,219.6,283.2,222.8,281.9z M222.4,299.2c-0.4,0.1-0.7,0.4-0.8,0.8c-0.2,0.4-0.2,0.8-0.1,1.2c0.1,0.5,0.4,1,0.9,1.5
			c0.5,0.5,1,0.9,1.7,1.1c1.5,0.5,3.1,0.5,4.9-0.3c1-0.4,1.8-1,2.3-1.6c0.5-0.6,0.7-1.2,0.5-1.8c-0.2-0.6-0.6-1-1.3-1.2
			c-0.7-0.2-2.1-0.2-4.1-0.2C224.5,298.9,223.1,299,222.4,299.2z M224.9,285.1c-0.7,0.3-1.2,0.7-1.6,1.1s-0.5,0.9-0.4,1.4
			c0.2,0.7,0.9,1.2,2.3,1.4c1.5,0.3,2.6,0.2,3.4-0.1c0.4-0.2,0.7-0.6,0.9-1.2c0.2-0.6,0.2-1.2,0-1.8c-0.2-0.8-0.8-1.2-1.6-1.3
			C227,284.5,226,284.7,224.9,285.1z"/>
	</g>
</g>
<g>
	<path class="st3" d="M145.5,141.5l-2.9,0c-2.1,0-3.5,0.1-4.5,0.1c-0.8,0.1-1.4,0.1-1.8,0.1c-0.9,0-1.6-0.2-2.1-0.7
		c-0.5-0.5-0.8-1-0.8-1.6c0-0.4,0.1-0.7,0.3-1c0.2-0.2,0.6-0.6,1.4-1.1c0.4-0.3,0.7-0.7,0.9-1.4c0.2-0.6,0.3-1.9,0.5-4
		c0.3-3.2,0.4-7.1,0.4-11.7c0-1.7-0.1-2.8-0.3-3.4c-0.2-0.6-0.8-1-1.6-1.4c-1-0.4-1.4-1-1.4-1.8c0-0.6,0.3-1.2,0.9-1.6
		c0.6-0.4,1.3-0.6,2.2-0.6c0.5,0,1.1,0,1.9,0.1c1.3,0.1,2.7,0.1,4.1,0.1c1.1,0,3.2,0,6.4-0.1c1,0,1.9,0,2.7,0c1.9,0,3.5,0.2,4.7,0.5
		c1.2,0.3,2.2,0.8,3.1,1.6c1.4,1.2,2.1,2.8,2.1,4.8c0,1-0.2,2-0.6,2.9c-0.4,1-1,1.7-1.7,2.3c-0.5,0.4-0.8,0.8-0.8,1.1
		c0,0.4,0.3,0.7,0.9,0.9c1.2,0.5,2.3,1.3,3.3,2.4c1,1.2,1.5,2.7,1.5,4.4c0,2.1-0.8,4-2.3,5.7c-2,2.3-5,3.4-9,3.4c-0.5,0-1.9,0-4-0.1
		C147.1,141.6,145.9,141.6,145.5,141.5z M147,117.9v4.5c0,0.7,0.1,1.2,0.3,1.5c0.2,0.3,0.5,0.4,0.9,0.4c1.1,0,1.9-0.3,2.4-1
		c0.5-0.7,0.8-1.7,0.8-3.1c0-1.4-0.3-2.4-0.8-3.2s-1.3-1.1-2.2-1.1c-0.5,0-0.9,0.1-1.1,0.4C147.1,116.6,147,117.1,147,117.9z
		 M147,130.4v2.1c0,1.9,0.1,3.2,0.4,3.8c0.3,0.6,0.8,0.9,1.7,0.9c2.2,0,3.3-1.3,3.3-3.9c0-3.2-1.2-4.8-3.7-4.8
		c-0.6,0-1.1,0.1-1.3,0.4C147.1,129.2,147,129.7,147,130.4z"/>
	<path class="st3" d="M185.8,131.8h-10.3c-0.5,0-0.7,0.2-0.7,0.6c0,0.9,0.5,1.8,1.5,2.7c1,0.8,2.1,1.3,3.3,1.3
		c0.7,0,1.5-0.1,2.3-0.4s1.6-0.6,2.1-1c0.5-0.3,0.9-0.5,1.2-0.5c0.4,0,0.7,0.2,1.1,0.7c0.4,0.5,0.5,0.9,0.5,1.4c0,1-0.7,2.1-2,3
		c-2.3,1.7-5,2.6-8,2.6c-3.1,0-5.6-0.9-7.7-2.7c-1-0.9-1.8-1.9-2.5-3.2c-0.9-1.6-1.3-3.4-1.3-5.2c0-2.4,0.7-4.6,2.2-6.6
		c1.3-1.7,2.9-2.9,4.9-3.8c1.5-0.6,3.1-0.9,4.8-0.9c2.8,0,5.1,0.8,7,2.4c1,0.8,1.8,1.7,2.4,2.8c0.7,1.2,1,2.4,1,3.6
		c0,0.9-0.2,1.7-0.6,2.3C187,131.5,186.5,131.8,185.8,131.8z M176.1,127.7h2.2c0.9,0,1.4-0.4,1.4-1.3c0-0.8-0.2-1.4-0.7-1.9
		c-0.5-0.5-1-0.7-1.8-0.7c-0.8,0-1.5,0.3-1.9,1c-0.4,0.6-0.7,1.2-0.7,1.8c0,0.4,0.1,0.7,0.3,0.9
		C175.3,127.6,175.6,127.7,176.1,127.7z"/>
	<path class="st3" d="M198.1,119.8c0.7,0,1.9,0.2,3.6,0.5c0.3,0.1,0.6,0.1,0.8,0.1c0.2,0,0.7-0.1,1.4-0.4c0.3-0.1,0.6-0.2,0.9-0.2
		c0.7,0,1.3,0.4,2,1.3c0.6,0.7,1,1.4,1.4,2.2c0.3,0.8,0.5,1.5,0.5,2.1c0,0.6-0.2,1.1-0.6,1.5c-0.4,0.4-0.9,0.6-1.5,0.6
		c-0.5,0-1-0.1-1.4-0.4c-0.4-0.2-1-0.8-1.9-1.6c-0.9-0.9-1.7-1.4-2.3-1.4c-0.4,0-0.8,0.1-1.1,0.4c-0.3,0.3-0.4,0.7-0.4,1.1
		c0,0.7,0.7,1.4,2.1,2c2.5,1.1,4.3,2.3,5.6,3.6c1.1,1.1,1.7,2.5,1.7,4.1c0,2-0.9,3.7-2.7,5.1c-1.5,1.2-3.4,1.8-5.6,1.8
		c-0.6,0-1.6-0.1-3.1-0.3c-1.4-0.2-2.2-0.2-2.4-0.2c-0.2,0-0.4,0-0.7,0.1c-0.4,0.1-0.7,0.1-0.9,0.1c-0.7,0-1.2-0.2-1.6-0.5
		c-0.6-0.5-1.1-1.4-1.7-2.5c-0.5-1.2-0.8-2.1-0.8-3c0-1.3,0.5-2,1.6-2c0.4,0,0.8,0.1,1.1,0.4c0.3,0.3,1.1,1,2.1,2.1
		c0.6,0.6,1.1,1.1,1.5,1.3s0.8,0.4,1.3,0.4c0.5,0,0.9-0.1,1.2-0.4c0.3-0.3,0.4-0.6,0.4-1c0-0.7-0.6-1.3-1.7-1.8
		c-2.3-1.1-4-2.3-5.1-3.6c-1-1.2-1.6-2.6-1.6-4.2c0-1.7,0.5-3.2,1.6-4.5C193.4,120.7,195.5,119.8,198.1,119.8z"/>
	<path class="st3" d="M223.7,125.6v7.4c0,0.9,0.2,1.6,0.6,2.1c0.4,0.6,1,0.8,1.6,0.8c0.6,0,1.3-0.3,2.2-0.8c0.2-0.1,0.4-0.2,0.7-0.2
		c0.3,0,0.7,0.2,1,0.6c0.3,0.4,0.4,0.9,0.4,1.4c0,0.9-0.5,1.8-1.5,2.6c-2.1,1.8-4.6,2.6-7.5,2.6c-2.3,0-4.2-0.7-5.6-2
		c-1.4-1.3-2.1-3-2.1-5.2v-10.1c0-0.3,0-0.5-0.1-0.6c-0.1-0.1-0.3-0.1-0.6-0.1h-2.2c-0.4,0-0.7-0.1-0.8-0.2c-0.1-0.1-0.2-0.5-0.2-1
		v-1c0-0.4,0.2-0.8,0.5-1l10-6.3c0.2-0.1,0.6-0.2,0.9-0.2h1.8c0.4,0,0.6,0.1,0.7,0.3c0.1,0.2,0.2,0.5,0.2,1v2.9
		c0,0.4,0.1,0.7,0.2,0.9c0.1,0.1,0.4,0.2,0.9,0.2h4c0.5,0,0.9,0.1,1,0.3c0.2,0.2,0.2,0.6,0.2,1.3v1.3c0,0.7-0.1,1.2-0.3,1.5
		c-0.2,0.3-0.6,0.4-1.1,0.4h-3.9c-0.4,0-0.7,0.1-0.8,0.2S223.7,125.1,223.7,125.6z"/>
</g>
<g>
	<path class="st3" d="M128.4,151.4h15.7c1.7-0.1,3.2-0.3,4.6-0.7c0.6-0.2,1.1-0.2,1.6-0.2c1.6,0,3.2,1.2,4.7,3.6
		c1.5,2.4,2.3,4.8,2.3,7.4c0,1.7-0.5,3-1.6,3.8c-0.8,0.6-1.8,0.9-2.9,0.9c-1.1,0-2-0.3-2.7-0.9c-0.8-0.6-1.5-1.6-2.3-2.9
		c-0.7-1.2-1.2-2-1.6-2.4c-0.4-0.4-0.8-0.6-1.4-0.6c-0.7,0-1.3,0.3-1.6,0.9c-0.3,0.6-0.5,1.6-0.5,3v16.7c0,1.7,0.2,3,0.5,3.7
		s1,1.4,2,1.8c1.1,0.5,1.8,0.9,2.2,1.3c0.4,0.4,0.6,1,0.6,1.7c0,1.4-1,2.5-2.9,3.2c-1.9,0.7-4.9,1-8.9,1c-4.9,0-8.6-0.4-11-1.2
		c-2-0.7-3-1.8-3-3.3c0-0.8,0.4-1.5,1.1-1.9c0.2-0.1,0.9-0.3,2.1-0.7c0.8-0.2,1.3-0.6,1.6-1.3c0.3-0.6,0.5-1.8,0.7-3.5
		c0.2-1.6,0.3-4.1,0.4-7.5c0.1-3.5,0.2-6.5,0.2-9c0-1.8-0.1-3.1-0.4-3.8c-0.3-0.8-0.7-1.1-1.4-1.1c-0.8,0-1.5,0.6-2.3,1.7
		c-1.3,2-2.4,3.4-3.3,4c-1,0.8-2,1.2-3,1.2c-1.1,0-2-0.4-2.7-1.2c-0.7-0.8-1-1.8-1-3.1c0-1.2,0.3-2.6,0.8-4.1s1.3-2.8,2.2-4.1
		c1.5-2,3-3,4.5-3c0.4,0,0.9,0.1,1.4,0.2c1.1,0.2,2,0.4,2.6,0.4C126.7,151.4,127.5,151.4,128.4,151.4z"/>
	<path class="st3" d="M181.1,150.6c5.1,0,9.6,1.5,13.4,4.4c2.6,2,4.7,4.6,6.3,7.8c1.6,3.2,2.4,6.4,2.4,9.5c0,4.7-1.6,8.9-4.7,12.6
		c-2.6,3.1-6.1,5.4-10.3,6.8c-2.6,0.8-5.2,1.3-7.8,1.3c-3.4,0-6.7-0.7-9.9-2.1c-3.8-1.7-6.8-4.3-8.9-7.8c-2.1-3.4-3.1-7.1-3.1-11.2
		c0-4.7,1.3-8.9,4-12.5c2.4-3.2,5.6-5.6,9.6-7.1C174.8,151.1,177.8,150.6,181.1,150.6z M178.2,159.2c-1.7,0-3,0.7-4,2.2
		c-0.8,1.1-1.1,2.4-1.1,4c0,2.2,0.5,4.8,1.4,7.8c0.9,3,2.1,5.6,3.5,7.9c0.6,1,1.4,1.8,2.3,2.3c0.9,0.6,1.8,0.9,2.8,0.9
		c1.5,0,2.7-0.6,3.7-1.7c0.9-1.1,1.4-2.6,1.4-4.5c0-2.4-0.4-5-1.2-7.8c-0.8-2.8-1.8-5.2-3-7.1c-0.8-1.2-1.6-2.2-2.6-2.9
		C180.3,159.6,179.3,159.2,178.2,159.2z"/>
	<path class="st3" d="M214.4,150.8c3.9,0,6.9,0.2,8.9,0.6c0.9,0.2,1.7,0.5,2.3,1.1c0.6,0.5,0.9,1.1,0.9,1.8c0,0.5-0.2,1-0.7,1.6
		c-0.6,0.8-1,1.4-1,1.8c0,0.7,0.6,1.9,1.7,3.4c0.7,1,1.4,1.5,2.1,1.5c0.4,0,0.8-0.2,1.2-0.5c0.4-0.3,0.9-0.9,1.6-1.7
		c0.8-1,1.2-1.7,1.2-2.3c0-0.4,0-0.6-0.1-0.8c-0.1-0.2-0.4-0.6-1-1.3c-0.4-0.5-0.6-1.1-0.6-1.8c0-2.2,3-3.4,9.1-3.4
		c3.4,0,5.7,0.2,6.7,0.5c0.7,0.2,1.2,0.6,1.6,1.1c0.4,0.6,0.6,1.2,0.6,1.8c0,0.8-0.2,1.4-0.7,1.8s-1.4,0.7-2.6,1
		c-1.1,0.2-2.1,0.7-3,1.3c-0.8,0.6-2.4,2.2-4.6,4.5c-2.7,2.9-4.4,5.1-5.1,6.5c-0.7,1.4-1,3.4-1,6.2c0,2.3,0.1,4.4,0.3,6.4
		c0.1,1.2,0.3,2.1,0.6,2.5c0.3,0.5,0.9,0.9,1.7,1.4c1.5,0.8,2.2,1.7,2.2,2.8c0,2.7-4,4.1-12,4.1c-3.3,0-6.4-0.3-9.3-1
		c-2.5-0.5-3.7-1.6-3.7-3.2c0-1.2,0.8-2.1,2.3-2.7c1.1-0.4,1.8-0.9,2.1-1.5c0.6-1.4,1-4.6,1-9.7c0-1.6-0.2-2.8-0.5-3.7
		c-0.3-0.9-1-2-2.1-3.4c-2.2-2.9-4.6-5.6-6.9-7.9c-1-1-2-1.7-3-2.1c-1.4-0.5-2.2-0.9-2.4-1.1c-0.6-0.5-0.8-1.1-0.8-1.9
		c0-1.3,1-2.3,3-2.9C206.3,151.1,209.7,150.8,214.4,150.8z"/>
</g>
<g>
	<path class="st3" d="M133.2,211.7l4.1,8.8c0.4,0.8,0.7,1.3,1,1.6c0.3,0.3,0.7,0.4,1.2,0.5c1,0.2,1.6,0.7,1.6,1.6
		c0,1.1-0.6,1.8-1.9,2.3c-1.3,0.5-3.4,0.7-6.3,0.7c-3.3,0-5.7-0.1-7.3-0.4c-0.7-0.1-1.3-0.4-1.7-0.8c-0.4-0.4-0.6-0.9-0.6-1.5
		c0-0.4,0.1-0.8,0.3-1c0.2-0.2,0.6-0.5,1.3-0.7c0.7-0.2,1-0.6,1-1.2c0-1-0.6-1.5-1.8-1.7c-1.3-0.2-3-0.3-5.3-0.3
		c-1.9,0-3.1,0.1-3.5,0.3c-0.2,0.1-0.4,0.4-0.6,0.8c-0.2,0.4-0.3,0.7-0.3,1.1c0,0.3,0.1,0.5,0.2,0.6c0.1,0.1,0.5,0.3,1.2,0.5
		c0.9,0.3,1.3,0.8,1.3,1.6c0,1.7-2.1,2.6-6.2,2.6c-2.4,0-4.1-0.2-5.2-0.5c-1-0.3-1.5-1-1.5-2c0-0.5,0.1-0.8,0.3-1
		c0.2-0.2,0.6-0.5,1.2-0.7c0.9-0.3,1.7-0.8,2.1-1.4c0.5-0.6,1.2-1.9,2.1-3.9l3.1-6.7c1.1-2.5,1.9-4.3,2.3-5.6
		c0.4-1.2,0.6-2.4,0.6-3.6c0-1.3,0.1-2.1,0.2-2.6c0.1-0.5,0.4-1,0.9-1.4c1-1,2.3-1.5,3.8-1.5c1.5,0,2.9,0.6,4.2,1.7
		C126.9,199.5,129.6,204.1,133.2,211.7z M118,214.4h4.3c0.8,0,1.2-0.2,1.2-0.5c0-0.5-0.5-1.7-1.6-3.5c-0.5-0.9-0.9-1.4-1.1-1.7
		s-0.5-0.4-0.8-0.4c-0.5,0-1,0.5-1.3,1.5c-0.1,0.1-0.3,0.6-0.6,1.5c-0.6,1.5-0.9,2.4-0.9,2.7C117,214.2,117.3,214.4,118,214.4z"/>
	<path class="st3" d="M164.1,223l-2.2-3.6c-0.5-0.8-0.9-1.3-1-1.5c-0.2-0.2-0.4-0.2-0.6-0.2c-0.5,0-1.1,0.5-1.6,1.4l-3.6,6.3
		c-0.7,1.2-1.5,1.8-2.4,1.8c-0.5,0-1-0.2-1.5-0.6c-0.5-0.4-0.9-1-1.5-1.9l-6.5-10.9c-1.1-1.8-1.9-2.9-2.6-3.4
		c-0.3-0.2-0.8-0.5-1.6-0.7c-0.3-0.1-0.6-0.3-0.8-0.6c-0.2-0.3-0.3-0.6-0.3-1c0-1.1,0.9-1.9,2.6-2.4c1.7-0.4,3.6-0.7,5.7-0.7
		c4.6,0,7,0.9,7,2.6c0,0.3-0.2,0.8-0.7,1.5c-0.1,0.1-0.1,0.3-0.1,0.4c0,0.3,0.3,1.1,1,2.4c0.8,1.4,1.4,2.2,2,2.2
		c0.3,0,0.7-0.4,1.2-1.1c0.5-0.7,0.7-1.3,0.7-1.8s-0.1-0.8-0.3-1.1c-0.2-0.3-0.7-0.7-1.5-1.3c-0.5-0.3-0.7-0.8-0.7-1.2
		c0-1.1,1.2-1.9,3.5-2.2c1.4-0.2,3.1-0.3,5-0.3c2.2,0,3.8,0.2,4.8,0.6c1,0.4,1.5,1,1.5,1.8c0,0.3-0.1,0.6-0.2,0.8
		c-0.1,0.2-0.4,0.6-0.9,1.1c-0.2,0.2-0.2,0.4-0.2,0.7c0,0.4,0.3,1.2,1,2.5c0.6,1.1,1.1,1.7,1.6,1.7c0.5,0,1.2-0.7,2-2.1
		c0.6-1.1,0.9-1.8,0.9-2.1c0-0.3-0.2-0.7-0.7-1.3c-0.3-0.4-0.5-0.9-0.5-1.3c0-0.8,0.3-1.3,1-1.6c1-0.4,2.4-0.6,4.2-0.6
		c1.2,0,2.3,0.1,3.3,0.3c0.6,0.1,1,0.4,1.4,0.7c0.3,0.4,0.5,0.8,0.5,1.2c0,0.5-0.2,0.9-0.6,1.2c-0.1,0.1-0.6,0.3-1.5,0.6
		c-0.5,0.2-1,0.5-1.3,0.9c-0.3,0.4-0.8,1.1-1.3,2l-5.5,10.6c-1.6,3.1-3,4.6-4.2,4.6c-0.5,0-1.1-0.3-1.7-1
		C165.8,225.6,165,224.5,164.1,223z"/>
	<path class="st3" d="M194.8,205c2.5,0,4.7,0.6,6.4,1.9c0.9,0.7,1.6,1.5,2,2.3c0.4,0.9,0.6,2.1,0.6,3.6l0,3.3c0,2.3,0.2,3.7,0.5,4.4
		c0.2,0.3,0.3,0.5,0.5,0.6c0.1,0.1,0.5,0.2,0.9,0.2c0.5,0.1,0.7,0.4,0.7,0.9c0,0.7-0.3,1.4-0.8,2.2c-0.6,0.8-1.3,1.4-2.2,1.9
		c-1.1,0.6-2.2,1-3.4,1c-1.5,0-2.7-0.5-3.6-1.6c-0.3-0.4-0.6-0.6-0.9-0.6c-0.3,0-0.7,0.2-1.2,0.5c-1.5,1.1-3.1,1.6-5,1.6
		c-1.9,0-3.4-0.4-4.6-1.2c-0.8-0.5-1.4-1.2-1.8-2.1s-0.7-1.8-0.7-2.7c0-1.5,0.6-2.8,1.8-4c1.9-1.8,4.8-2.8,8.6-2.8
		c0.8,0,1.4-0.1,1.6-0.3c0.2-0.2,0.3-0.6,0.3-1.2c0-1.5-0.2-2.7-0.5-3.3c-0.3-0.7-0.8-1-1.6-1c-0.4,0-0.8,0.1-1.2,0.4
		c-0.3,0.3-0.8,0.7-1.3,1.4c-1.3,1.8-2.6,2.8-4.1,2.8c-0.7,0-1.3-0.2-1.7-0.6c-0.5-0.4-0.7-1-0.7-1.7c0-0.7,0.3-1.4,0.8-2.1
		c0.6-0.7,1.3-1.3,2.3-1.8C189.2,205.7,191.9,205,194.8,205z M193.3,217.6c-0.6,0-1.2,0.3-1.7,0.8c-0.5,0.5-0.7,1.1-0.7,1.9
		c0,0.7,0.2,1.3,0.5,1.7s0.8,0.6,1.3,0.6c1.2,0,1.7-1,1.7-2.9c0-0.8-0.1-1.3-0.3-1.6C194.1,217.8,193.8,217.7,193.3,217.6z"/>
	<path class="st3" d="M217.8,205.2c0.8,0,1.2,0.1,1.4,0.3s0.3,0.9,0.4,2.1c0.1,0.6,0.3,1,0.7,1c0.3,0,0.6-0.2,0.8-0.6
		c1.2-1.8,2.7-2.7,4.6-2.7c1.3,0,2.4,0.4,3.3,1.3c0.4,0.4,0.7,1,1,1.6c0.3,0.7,0.4,1.3,0.4,1.9c0,0.7-0.2,1.4-0.5,2.1
		s-0.7,1.3-1.2,1.8c-0.9,0.9-2.1,1.3-3.4,1.3c-0.7,0-1.4-0.1-1.9-0.4c-0.5-0.3-1.2-0.8-2-1.6c-0.3-0.3-0.6-0.5-0.9-0.5
		c-0.4,0-0.7,0.2-0.8,0.7c-0.1,0.5-0.2,1.4-0.2,2.9c0,2.2,0.1,3.7,0.2,4.5c0.1,0.4,0.2,0.7,0.4,0.9s0.6,0.3,1.2,0.5
		c1.3,0.4,2,1.1,2,2c0,0.6-0.2,1.1-0.6,1.6c-0.4,0.4-1,0.7-1.7,0.9c-1.4,0.3-3.4,0.4-6.2,0.4c-2.6,0-4.5-0.2-5.9-0.7
		c-1.2-0.4-1.8-1.1-1.8-2.1c0-0.8,0.4-1.4,1.3-2c0.4-0.3,0.7-0.5,0.9-0.8c0.2-0.2,0.3-0.5,0.3-0.9c0.2-1.3,0.3-3.8,0.3-7.4
		c0-0.7-0.1-1.1-0.2-1.4c-0.1-0.3-0.4-0.5-0.9-0.7c-1-0.4-1.5-1-1.5-1.8c0-0.7,0.4-1.3,1.1-1.8c0.7-0.5,1.9-1,3.6-1.5
		C214.4,205.5,216.3,205.2,217.8,205.2z"/>
	<path class="st3" d="M256.6,198.7v19.9c0,1.1,0,1.9,0.1,2.2c0.1,0.3,0.4,0.6,0.8,0.9c0.5,0.4,0.9,0.7,1.1,1c0.2,0.3,0.3,0.6,0.3,1
		c0,1.2-1.2,2.1-3.5,2.7c-2.1,0.5-4.2,0.8-6.3,0.8c-0.5,0-0.8-0.1-0.9-0.2c-0.1-0.1-0.2-0.5-0.3-1c-0.1-0.7-0.3-1.1-0.8-1.1
		c-0.2,0-0.6,0.2-1.2,0.7c-1.5,1.2-3.1,1.8-5,1.8c-2.3,0-4.3-0.8-6.1-2.5c-1.1-1-1.9-2.2-2.6-3.5c-0.9-1.7-1.3-3.4-1.3-5.2
		c0-2,0.6-4,1.7-5.9c1-1.8,2.5-3.1,4.3-4.1c1.5-0.8,3-1.2,4.5-1.2c1.7,0,3.2,0.4,4.5,1.1c0.2,0.1,0.4,0.2,0.5,0.2
		c0.5,0,0.7-0.6,0.7-1.9c0-0.5-0.1-0.9-0.4-1.2c-0.3-0.3-0.7-0.5-1.4-0.7c-0.9-0.3-1.4-0.8-1.4-1.5c0-1.1,1.1-1.9,3.2-2.5
		c3.7-1,6.2-1.5,7.5-1.5C256,196.9,256.6,197.5,256.6,198.7z M244.8,209.7c-0.9,0-1.7,0.5-2.2,1.5c-0.7,1.3-1.1,3.1-1.1,5.3
		c0,2,0.4,3.5,1.1,4.5c0.5,0.7,1.2,1.1,2.1,1.1c0.9,0,1.6-0.5,2.1-1.6c0.4-1.1,0.6-2.9,0.6-5.3c0-2.2-0.3-3.7-0.8-4.5
		C246.1,210,245.5,209.7,244.8,209.7z"/>
</g>
</svg>
